<?xml version="1.0" encoding="utf-8"?>
<!-- Generator: Adobe Illustrator 25.3.1, SVG Export Plug-In . SVG Version: 6.00 Build 0)  -->
<svg version="1.1" id="Layer_1" xmlns="http://www.w3.org/2000/svg" xmlns:xlink="http://www.w3.org/1999/xlink" x="0px" y="0px"
	 viewBox="0 0 500 300" style="enable-background:new 0 0 500 300;" xml:space="preserve">
<style type="text/css">
	.st0{fill:#FFFFFF;}
	.st1{fill:#FFC501;}
</style>
<g>
	<path class="st0" d="M451.7,65.8v198c0,6.9-5.6,12.5-12.5,12.5s-12.5-5.6-12.5-12.5V118.3c-2.2,4-4.5,8.1-6.8,12.2
		c-10.1,17.6-19.4,31.6-27.7,41.9c-12.7,15.6-23.4,22.9-34,22.9c-11.5,0-20.3-8.2-26-24.4c-3.7-10.6-6.2-24-8.8-38.2
		c-2.8-15.1-5.7-30.6-10-41.8c-1.1-3-5.2-12.6-9.3-12.6c-1.8,0-6.6,4.1-12,19.4c-5.4,15.4-9.2,36.3-12.7,54.7
		c-2.6,13.8-5,26.9-7.8,36.7c-2.1,7.2-7,24.1-21.5,24.1c-1.9,0-3.7-0.4-5.2-1.2c-10.9-3.2-14.9-17.1-16.8-23.4
		c-2.8-9.8-5.3-22.9-7.8-36.7c-0.3-1.5-0.6-3-0.8-4.5c-0.9-5-1.9-10.2-2.9-15.3c0.1-0.8,0.2-1.6,0.2-2.4V62.5
		c3.8,4,6.8,8.8,9.1,13.3c2.7,5.3,4.4,10.3,5.5,13.3c6,17.2,10,39.1,13.6,58.4c1.5,8.1,3.3,17.6,5.1,25.7c1.8-8,3.5-17.3,5-25.2
		c3.6-19.3,7.6-41.2,13.6-58.4c3.1-9,12.6-36.2,35.6-36.2c14.3,0,25.3,9.6,32.6,28.7c5.1,13.3,8.2,30.1,11.2,46.2
		c2,11,4,21.4,6.3,29.7c2,7.1,3.8,10.5,4.8,11.9c3.7-2,16-11.2,40.2-53.8c15.8-27.7,28.3-55.1,28.5-55.4c2.5-5.3,8.3-8.3,14-7
		C447.6,54.9,451.7,60,451.7,65.8z"/>
	<g>
		<g>
			<path class="st1" d="M217.6,32.5c-5-5-12-8.2-19.7-8.2c-15.4,0-27.9,12.5-27.9,27.9v15.6c2.7-4,5.8-7.3,9.1-9.7v-5.9
				c0-10.4,8.4-18.8,18.8-18.8s18.8,8.4,18.8,18.8v77.6c0,0.8,0,1.6-0.2,2.4c-1.2,9.2-9.1,16.4-18.6,16.4
				c-10.4,0-18.8-8.4-18.8-18.8v-11.7c-0.9,4.7-1.8,9.5-2.7,14.2c-0.8,4.1-1.5,8.2-2.3,12.1c3.9,6.3,10.2,11,17.7,12.7
				c2,0.4,4,0.7,6.1,0.7s4.1-0.2,6.1-0.7c6.2-1.4,11.6-4.8,15.5-9.5c4-4.8,6.3-11,6.3-17.7V52.2C225.8,44.5,222.7,37.6,217.6,32.5z"
				/>
			<path class="st0" d="M216.7,62.5v67.4c0,0.8,0,1.6-0.2,2.4c-2.5-12.5-5.4-24.9-8.9-35c-5.4-15.4-10.2-19.4-12-19.4
				c-4.1,0-8.1,9.7-9.3,12.6c-3,7.7-5.2,17.4-7.3,27.7c-0.9,4.7-1.8,9.5-2.7,14.2c-0.8,4.1-1.5,8.2-2.3,12.1
				c-1.9,9.6-3.9,18.5-6.5,26c-5.7,16.2-14.4,24.4-26,24.4c-10.5,0-21.3-7.3-34-22.9c-8.3-10.2-17.6-24.3-27.7-41.9
				c-2.4-4.1-4.6-8.2-6.8-12.2v145.5c0,6.9-5.6,12.5-12.5,12.5s-12.5-5.6-12.5-12.5v-198c0-5.9,4.1-11,9.8-12.2
				c5.7-1.2,11.6,1.7,14,7c0.1,0.3,12.7,27.7,28.5,55.4c24.2,42.6,36.5,51.8,40.2,53.8c1-1.5,2.8-4.8,4.8-11.9
				c2.4-8.3,4.3-18.7,6.3-29.7c3-16.2,6.1-32.9,11.2-46.2c2-5.3,4.4-9.9,7-13.7c2.7-4,5.8-7.3,9.1-9.7c4.9-3.5,10.4-5.3,16.5-5.3
				C204.6,52.8,211.4,56.9,216.7,62.5z"/>
			<path class="st1" d="M197.9,272.3L197.9,272.3c-3.3,0-6.1-2.7-6.1-6.1V151.7H204v114.6C204,269.6,201.3,272.3,197.9,272.3z"/>
		</g>
	</g>
</g>
</svg>
